<svg xmlns="http://www.w3.org/2000/svg" viewBox="0 0 48 48" role="img" aria-label="Luna"><g transform="translate(-1.27 -1.42)"><g class="ii-body"><g><g transform="translate(2.55 2.85)"><path d="M26 6A17.5 17.5 0 1 0 39 35A14.5 14.5 0 0 1 26 6Z" fill="#20536E" stroke="#20536E" stroke-width="3.4" stroke-linejoin="round"/><path d="M26 6A17.5 17.5 0 1 0 39 35A14.5 14.5 0 0 1 26 6Z" fill="#20536E" stroke="#20536E" stroke-width="3.4" stroke-linejoin="round"/><path class="m-bar" d="M33.5 19V28" fill="#20536E" stroke="#20536E" stroke-width="3.4" stroke-linejoin="round"/><path class="m-bar w2" d="M38.5 15V32" fill="#20536E" stroke="#20536E" stroke-width="3.4" stroke-linejoin="round"/><path class="m-bar w4" d="M43.5 19.5V27.5" fill="#20536E" stroke="#20536E" stroke-width="3.4" stroke-linejoin="round"/></g><g transform="translate(1.70 1.90)"><path d="M26 6A17.5 17.5 0 1 0 39 35A14.5 14.5 0 0 1 26 6Z" fill="#20536E" stroke="#20536E" stroke-width="3.4" stroke-linejoin="round"/><path d="M26 6A17.5 17.5 0 1 0 39 35A14.5 14.5 0 0 1 26 6Z" fill="#20536E" stroke="#20536E" stroke-width="3.4" stroke-linejoin="round"/><path class="m-bar" d="M33.5 19V28" fill="#20536E" stroke="#20536E" stroke-width="3.4" stroke-linejoin="round"/><path class="m-bar w2" d="M38.5 15V32" fill="#20536E" stroke="#20536E" stroke-width="3.4" stroke-linejoin="round"/><path class="m-bar w4" d="M43.5 19.5V27.5" fill="#20536E" stroke="#20536E" stroke-width="3.4" stroke-linejoin="round"/></g><g transform="translate(0.85 0.95)"><path d="M26 6A17.5 17.5 0 1 0 39 35A14.5 14.5 0 0 1 26 6Z" fill="#20536E" stroke="#20536E" stroke-width="3.4" stroke-linejoin="round"/><path d="M26 6A17.5 17.5 0 1 0 39 35A14.5 14.5 0 0 1 26 6Z" fill="#20536E" stroke="#20536E" stroke-width="3.4" stroke-linejoin="round"/><path class="m-bar" d="M33.5 19V28" fill="#20536E" stroke="#20536E" stroke-width="3.4" stroke-linejoin="round"/><path class="m-bar w2" d="M38.5 15V32" fill="#20536E" stroke="#20536E" stroke-width="3.4" stroke-linejoin="round"/><path class="m-bar w4" d="M43.5 19.5V27.5" fill="#20536E" stroke="#20536E" stroke-width="3.4" stroke-linejoin="round"/></g></g><g><path d="M26 6A17.5 17.5 0 1 0 39 35A14.5 14.5 0 0 1 26 6Z" fill="#73A6C4"/><path d="M26 6A17.5 17.5 0 1 0 39 35A14.5 14.5 0 0 1 26 6Z" fill="none" stroke="#041824" stroke-width="2.8" stroke-linecap="round" stroke-linejoin="round"/><path class="m-bar" d="M33.5 19V28" fill="none" stroke="#041824" stroke-width="2.8" stroke-linecap="round" stroke-linejoin="round"/><path class="m-bar w2" d="M38.5 15V32" fill="none" stroke="#041824" stroke-width="2.8" stroke-linecap="round" stroke-linejoin="round"/><path class="m-bar w4" d="M43.5 19.5V27.5" fill="none" stroke="#041824" stroke-width="2.8" stroke-linecap="round" stroke-linejoin="round"/></g></g></g></svg>
